# xmcd
#
# Track frame offsets: 
#        150
#        15419
#        26953
#        40186
#        51470
#        68708
#        82910
#        93864
#        108773
#        123667
#        136721
#        151868
#        165315
#        177746
#        188332
#        200046
#        216202
#        226961
#        237580
#        248336
#        263353
#        274088
#        285698
#        301233
#        314404
#        324491
#
# Disc length: 4512 seconds
#
# Revision: 0
# Processed by: cddbd v1.4PL0 Copyright (c) Steve Scherf et al.
# Submitted via: ExactAudioCopy v0.95a3
#
DISCID=5a119e1a
DTITLE=Kenny Rogers and First Edition - All-Time Country Classics
DYEAR=1999
DGENRE=Pop-Folk
TTITLE0=For the Good Times
TTITLE1=Me and Bobby McGee
TTITLE2=Ruby Don't Take Your Love to Town
TTITLE3=Hurry Up Love
TTITLE4=Somethings Burning
TTITLE5=Loser
TTITLE6=Always Leaving, Always Gone
TTITLE7=Heed the Call
TTITLE8=Church Without a Name
TTITLE9=Run Through Your Mind
TTITLE10=Just Dropped In
TTITLE11=Shine On Ruby Mountain
TTITLE12=Reuben James
TTITLE13=Ticket to Nowhere
TTITLE14=Calico Silver
TTITLE15=The Way It Used To Be
TTITLE16=We All Got To Help Each Other
TTITLE17=Trying Just As Hard As I Can
TTITLE18=She Even Woke Me Up To Say Goodbye
TTITLE19=After All
TTITLE20=Goodtime Liberator
TTITLE21=A Poem For My Little Lady
TTITLE22=My Washington Woman
TTITLE23=Sleep Comes Easy
TTITLE24=Where Does Rosie Go
TTITLE25=Sunshine
EXTD=
EXTT0=
EXTT1=
EXTT2=
EXTT3=
EXTT4=
EXTT5=
EXTT6=
EXTT7=
EXTT8=
EXTT9=
EXTT10=
EXTT11=
EXTT12=
EXTT13=
EXTT14=
EXTT15=
EXTT16=
EXTT17=
EXTT18=
EXTT19=
EXTT20=
EXTT21=
EXTT22=
EXTT23=
EXTT24=
EXTT25=
PLAYORDER=
